<svg xmlns="http://www.w3.org/2000/svg" width="540.12" height="467.76" viewBox="0 0 540.12 467.76">
  <g>
    <polygon points="140.23 458.76 10.39 233.88 140.23 9 399.89 9 529.73 233.88 399.89 458.76 140.23 458.76" style="stroke: #f2ae09;stroke-miterlimit: 10;stroke-width: 18px"/>
    <polygon points="128.84 88.72 219.74 428.75 157.56 428.75 45.03 233.88 128.84 88.72" style="fill: #fff"/>
    <path d="M174.62,56.87Q172.94,48,171.45,39H382.58l11.54,20L207.92,204.84q-8.31-32.39-15.83-65Q185.72,112.36,180,84.65l-2.77-13.87Z" style="fill: #fff"/>
    <path d="M224.34,266.51,442,325.86,382.58,428.75H273.52c-8-23.47-15.45-47.09-22.71-70.76Q236.92,312.44,224.34,266.51Z" style="fill: #fff"/>
    <polygon points="495.1 233.88 469.96 277.43 240.72 229.57 420.19 104.14 495.1 233.88" style="fill: #fff"/>
  </g>
</svg>
